<mxfile host="app.diagrams.net" modified="2022-12-11T12:19:58.814Z" agent="5.0 (Windows NT 10.0; Win64; x64) AppleWebKit/537.36 (KHTML, like Gecko) Chrome/108.0.0.0 Safari/537.36" version="20.6.2" etag="cwPZjZBu5zpzdQpTJQc_" type="github">
  <diagram id="-yitt3uk9tEpncQXsSZD" name="第 1 页">
    <mxGraphModel dx="2516" dy="1989" grid="1" gridSize="10" guides="1" tooltips="1" connect="1" arrows="1" fold="1" page="1" pageScale="1" pageWidth="827" pageHeight="1169" math="0" shadow="0">
      <root>
        <mxCell id="0" />
        <mxCell id="1" parent="0" />
        <mxCell id="taEyntPw08g6chy3ZYY9-30" style="edgeStyle=orthogonalEdgeStyle;rounded=0;orthogonalLoop=1;jettySize=auto;html=1;exitX=0.5;exitY=1;exitDx=0;exitDy=0;" edge="1" parent="1" source="taEyntPw08g6chy3ZYY9-1" target="taEyntPw08g6chy3ZYY9-2">
          <mxGeometry relative="1" as="geometry">
            <Array as="points">
              <mxPoint x="570" y="-180" />
              <mxPoint x="330" y="-180" />
            </Array>
          </mxGeometry>
        </mxCell>
        <mxCell id="taEyntPw08g6chy3ZYY9-31" style="edgeStyle=orthogonalEdgeStyle;rounded=0;orthogonalLoop=1;jettySize=auto;html=1;exitX=0.5;exitY=1;exitDx=0;exitDy=0;entryX=0.5;entryY=0;entryDx=0;entryDy=0;" edge="1" parent="1" source="taEyntPw08g6chy3ZYY9-1" target="taEyntPw08g6chy3ZYY9-5">
          <mxGeometry relative="1" as="geometry">
            <Array as="points">
              <mxPoint x="570" y="-180" />
              <mxPoint x="490" y="-180" />
            </Array>
          </mxGeometry>
        </mxCell>
        <mxCell id="taEyntPw08g6chy3ZYY9-32" style="edgeStyle=orthogonalEdgeStyle;rounded=0;orthogonalLoop=1;jettySize=auto;html=1;exitX=0.5;exitY=1;exitDx=0;exitDy=0;entryX=0.5;entryY=0;entryDx=0;entryDy=0;" edge="1" parent="1" source="taEyntPw08g6chy3ZYY9-1" target="taEyntPw08g6chy3ZYY9-6">
          <mxGeometry relative="1" as="geometry">
            <Array as="points">
              <mxPoint x="570" y="-180" />
              <mxPoint x="650" y="-180" />
            </Array>
          </mxGeometry>
        </mxCell>
        <mxCell id="taEyntPw08g6chy3ZYY9-33" style="edgeStyle=orthogonalEdgeStyle;rounded=0;orthogonalLoop=1;jettySize=auto;html=1;exitX=0.5;exitY=1;exitDx=0;exitDy=0;entryX=0.5;entryY=0;entryDx=0;entryDy=0;" edge="1" parent="1" source="taEyntPw08g6chy3ZYY9-1" target="taEyntPw08g6chy3ZYY9-7">
          <mxGeometry relative="1" as="geometry">
            <Array as="points">
              <mxPoint x="570" y="-180" />
              <mxPoint x="810" y="-180" />
            </Array>
          </mxGeometry>
        </mxCell>
        <mxCell id="taEyntPw08g6chy3ZYY9-1" value="开始主菜单" style="rounded=0;whiteSpace=wrap;html=1;" vertex="1" parent="1">
          <mxGeometry x="510" y="-270" width="120" height="60" as="geometry" />
        </mxCell>
        <mxCell id="taEyntPw08g6chy3ZYY9-80" style="edgeStyle=orthogonalEdgeStyle;rounded=0;orthogonalLoop=1;jettySize=auto;html=1;exitX=0.5;exitY=1;exitDx=0;exitDy=0;" edge="1" parent="1" source="taEyntPw08g6chy3ZYY9-2" target="taEyntPw08g6chy3ZYY9-78">
          <mxGeometry relative="1" as="geometry" />
        </mxCell>
        <mxCell id="taEyntPw08g6chy3ZYY9-2" value="单人模式" style="rounded=0;whiteSpace=wrap;html=1;" vertex="1" parent="1">
          <mxGeometry x="270" y="-160" width="120" height="60" as="geometry" />
        </mxCell>
        <mxCell id="taEyntPw08g6chy3ZYY9-83" style="edgeStyle=orthogonalEdgeStyle;rounded=0;orthogonalLoop=1;jettySize=auto;html=1;exitX=0.5;exitY=1;exitDx=0;exitDy=0;" edge="1" parent="1" source="taEyntPw08g6chy3ZYY9-5" target="taEyntPw08g6chy3ZYY9-78">
          <mxGeometry relative="1" as="geometry" />
        </mxCell>
        <mxCell id="taEyntPw08g6chy3ZYY9-5" value="多人模式" style="rounded=0;whiteSpace=wrap;html=1;" vertex="1" parent="1">
          <mxGeometry x="430" y="-160" width="120" height="60" as="geometry" />
        </mxCell>
        <mxCell id="taEyntPw08g6chy3ZYY9-6" value="帮助菜单" style="rounded=0;whiteSpace=wrap;html=1;" vertex="1" parent="1">
          <mxGeometry x="590" y="-160" width="120" height="60" as="geometry" />
        </mxCell>
        <mxCell id="taEyntPw08g6chy3ZYY9-7" value="退出" style="rounded=0;whiteSpace=wrap;html=1;" vertex="1" parent="1">
          <mxGeometry x="750" y="-160" width="120" height="60" as="geometry" />
        </mxCell>
        <mxCell id="taEyntPw08g6chy3ZYY9-34" style="edgeStyle=orthogonalEdgeStyle;rounded=0;orthogonalLoop=1;jettySize=auto;html=1;exitX=0.5;exitY=1;exitDx=0;exitDy=0;entryX=0.5;entryY=0;entryDx=0;entryDy=0;" edge="1" parent="1" source="taEyntPw08g6chy3ZYY9-12" target="taEyntPw08g6chy3ZYY9-17">
          <mxGeometry relative="1" as="geometry" />
        </mxCell>
        <mxCell id="taEyntPw08g6chy3ZYY9-12" value="开始游戏" style="rounded=0;whiteSpace=wrap;html=1;" vertex="1" parent="1">
          <mxGeometry x="354" y="100" width="120" height="60" as="geometry" />
        </mxCell>
        <mxCell id="taEyntPw08g6chy3ZYY9-20" style="edgeStyle=orthogonalEdgeStyle;rounded=0;orthogonalLoop=1;jettySize=auto;html=1;exitX=0.5;exitY=1;exitDx=0;exitDy=0;entryX=0.5;entryY=0;entryDx=0;entryDy=0;" edge="1" parent="1" source="taEyntPw08g6chy3ZYY9-17" target="taEyntPw08g6chy3ZYY9-18">
          <mxGeometry relative="1" as="geometry" />
        </mxCell>
        <mxCell id="taEyntPw08g6chy3ZYY9-23" value="否" style="edgeLabel;html=1;align=center;verticalAlign=middle;resizable=0;points=[];" vertex="1" connectable="0" parent="taEyntPw08g6chy3ZYY9-20">
          <mxGeometry x="-0.25" relative="1" as="geometry">
            <mxPoint x="2" as="offset" />
          </mxGeometry>
        </mxCell>
        <mxCell id="taEyntPw08g6chy3ZYY9-27" value="是" style="edgeStyle=orthogonalEdgeStyle;rounded=0;orthogonalLoop=1;jettySize=auto;html=1;exitX=0;exitY=0.5;exitDx=0;exitDy=0;entryX=1;entryY=0.5;entryDx=0;entryDy=0;" edge="1" parent="1" source="taEyntPw08g6chy3ZYY9-17" target="taEyntPw08g6chy3ZYY9-26">
          <mxGeometry relative="1" as="geometry" />
        </mxCell>
        <mxCell id="taEyntPw08g6chy3ZYY9-17" value="敌方坦克是否全部消灭？" style="rhombus;whiteSpace=wrap;html=1;" vertex="1" parent="1">
          <mxGeometry x="339" y="210" width="150" height="80" as="geometry" />
        </mxCell>
        <mxCell id="taEyntPw08g6chy3ZYY9-29" value="否" style="edgeStyle=orthogonalEdgeStyle;rounded=0;orthogonalLoop=1;jettySize=auto;html=1;exitX=0.5;exitY=1;exitDx=0;exitDy=0;entryX=0.5;entryY=0;entryDx=0;entryDy=0;" edge="1" parent="1" source="taEyntPw08g6chy3ZYY9-18" target="taEyntPw08g6chy3ZYY9-28">
          <mxGeometry relative="1" as="geometry" />
        </mxCell>
        <mxCell id="taEyntPw08g6chy3ZYY9-40" value="是" style="edgeStyle=orthogonalEdgeStyle;rounded=0;orthogonalLoop=1;jettySize=auto;html=1;exitX=0;exitY=0.5;exitDx=0;exitDy=0;entryX=1;entryY=0.5;entryDx=0;entryDy=0;" edge="1" parent="1" source="taEyntPw08g6chy3ZYY9-18" target="taEyntPw08g6chy3ZYY9-39">
          <mxGeometry relative="1" as="geometry" />
        </mxCell>
        <mxCell id="taEyntPw08g6chy3ZYY9-18" value="我方坦克是否全部被打败？&lt;br&gt;OR&lt;br&gt;我方基地是否被击破？" style="rhombus;whiteSpace=wrap;html=1;" vertex="1" parent="1">
          <mxGeometry x="309" y="340" width="210" height="100" as="geometry" />
        </mxCell>
        <mxCell id="taEyntPw08g6chy3ZYY9-44" style="edgeStyle=orthogonalEdgeStyle;rounded=0;orthogonalLoop=1;jettySize=auto;html=1;exitX=0;exitY=0.5;exitDx=0;exitDy=0;entryX=1;entryY=0.5;entryDx=0;entryDy=0;" edge="1" parent="1" source="taEyntPw08g6chy3ZYY9-26" target="taEyntPw08g6chy3ZYY9-41">
          <mxGeometry relative="1" as="geometry" />
        </mxCell>
        <mxCell id="taEyntPw08g6chy3ZYY9-45" style="edgeStyle=orthogonalEdgeStyle;rounded=0;orthogonalLoop=1;jettySize=auto;html=1;exitX=0;exitY=0.5;exitDx=0;exitDy=0;entryX=1;entryY=0.5;entryDx=0;entryDy=0;" edge="1" parent="1" source="taEyntPw08g6chy3ZYY9-26" target="taEyntPw08g6chy3ZYY9-42">
          <mxGeometry relative="1" as="geometry" />
        </mxCell>
        <mxCell id="taEyntPw08g6chy3ZYY9-26" value="游戏胜利" style="rounded=0;whiteSpace=wrap;html=1;" vertex="1" parent="1">
          <mxGeometry x="140" y="220" width="120" height="60" as="geometry" />
        </mxCell>
        <mxCell id="taEyntPw08g6chy3ZYY9-53" style="edgeStyle=orthogonalEdgeStyle;rounded=0;orthogonalLoop=1;jettySize=auto;html=1;exitX=0.5;exitY=1;exitDx=0;exitDy=0;entryX=0.5;entryY=0;entryDx=0;entryDy=0;" edge="1" parent="1" source="taEyntPw08g6chy3ZYY9-28" target="taEyntPw08g6chy3ZYY9-52">
          <mxGeometry relative="1" as="geometry" />
        </mxCell>
        <mxCell id="taEyntPw08g6chy3ZYY9-28" value="游戏运行" style="rounded=0;whiteSpace=wrap;html=1;" vertex="1" parent="1">
          <mxGeometry x="354" y="494.5" width="120" height="60" as="geometry" />
        </mxCell>
        <mxCell id="taEyntPw08g6chy3ZYY9-46" style="edgeStyle=orthogonalEdgeStyle;rounded=0;orthogonalLoop=1;jettySize=auto;html=1;exitX=0;exitY=0.5;exitDx=0;exitDy=0;entryX=1;entryY=0.5;entryDx=0;entryDy=0;" edge="1" parent="1" source="taEyntPw08g6chy3ZYY9-39" target="taEyntPw08g6chy3ZYY9-42">
          <mxGeometry relative="1" as="geometry" />
        </mxCell>
        <mxCell id="taEyntPw08g6chy3ZYY9-47" style="edgeStyle=orthogonalEdgeStyle;rounded=0;orthogonalLoop=1;jettySize=auto;html=1;exitX=0;exitY=0.5;exitDx=0;exitDy=0;entryX=1;entryY=0.5;entryDx=0;entryDy=0;" edge="1" parent="1" source="taEyntPw08g6chy3ZYY9-39" target="taEyntPw08g6chy3ZYY9-43">
          <mxGeometry relative="1" as="geometry" />
        </mxCell>
        <mxCell id="taEyntPw08g6chy3ZYY9-39" value="游戏失败" style="rounded=0;whiteSpace=wrap;html=1;" vertex="1" parent="1">
          <mxGeometry x="140" y="360" width="120" height="60" as="geometry" />
        </mxCell>
        <mxCell id="taEyntPw08g6chy3ZYY9-51" style="edgeStyle=orthogonalEdgeStyle;rounded=0;orthogonalLoop=1;jettySize=auto;html=1;exitX=0;exitY=0.5;exitDx=0;exitDy=0;entryX=0;entryY=0.5;entryDx=0;entryDy=0;" edge="1" parent="1" source="taEyntPw08g6chy3ZYY9-41" target="taEyntPw08g6chy3ZYY9-12">
          <mxGeometry relative="1" as="geometry">
            <Array as="points">
              <mxPoint x="-130" y="210" />
              <mxPoint x="-130" y="130" />
            </Array>
          </mxGeometry>
        </mxCell>
        <mxCell id="taEyntPw08g6chy3ZYY9-41" value="下一关" style="rounded=0;whiteSpace=wrap;html=1;" vertex="1" parent="1">
          <mxGeometry x="-50" y="180" width="120" height="60" as="geometry" />
        </mxCell>
        <mxCell id="taEyntPw08g6chy3ZYY9-42" value="退出" style="rounded=0;whiteSpace=wrap;html=1;" vertex="1" parent="1">
          <mxGeometry x="-50" y="290" width="120" height="60" as="geometry" />
        </mxCell>
        <mxCell id="taEyntPw08g6chy3ZYY9-48" style="edgeStyle=orthogonalEdgeStyle;rounded=0;orthogonalLoop=1;jettySize=auto;html=1;exitX=0;exitY=0.5;exitDx=0;exitDy=0;entryX=0;entryY=0.5;entryDx=0;entryDy=0;" edge="1" parent="1" source="taEyntPw08g6chy3ZYY9-43" target="taEyntPw08g6chy3ZYY9-12">
          <mxGeometry relative="1" as="geometry">
            <Array as="points">
              <mxPoint x="-130" y="440" />
              <mxPoint x="-130" y="130" />
            </Array>
          </mxGeometry>
        </mxCell>
        <mxCell id="taEyntPw08g6chy3ZYY9-43" value="重新开始" style="rounded=0;whiteSpace=wrap;html=1;" vertex="1" parent="1">
          <mxGeometry x="-50" y="410" width="120" height="60" as="geometry" />
        </mxCell>
        <mxCell id="taEyntPw08g6chy3ZYY9-57" value="否" style="edgeStyle=orthogonalEdgeStyle;rounded=0;orthogonalLoop=1;jettySize=auto;html=1;exitX=1;exitY=0.5;exitDx=0;exitDy=0;entryX=1;entryY=0.5;entryDx=0;entryDy=0;" edge="1" parent="1" source="taEyntPw08g6chy3ZYY9-52" target="taEyntPw08g6chy3ZYY9-12">
          <mxGeometry x="-0.8954" relative="1" as="geometry">
            <Array as="points">
              <mxPoint x="620" y="650" />
              <mxPoint x="620" y="130" />
            </Array>
            <mxPoint as="offset" />
          </mxGeometry>
        </mxCell>
        <mxCell id="taEyntPw08g6chy3ZYY9-62" value="是" style="edgeStyle=orthogonalEdgeStyle;rounded=0;orthogonalLoop=1;jettySize=auto;html=1;exitX=0.5;exitY=1;exitDx=0;exitDy=0;entryX=0.5;entryY=0;entryDx=0;entryDy=0;" edge="1" parent="1" source="taEyntPw08g6chy3ZYY9-52" target="taEyntPw08g6chy3ZYY9-60">
          <mxGeometry x="0.1429" relative="1" as="geometry">
            <mxPoint as="offset" />
          </mxGeometry>
        </mxCell>
        <mxCell id="taEyntPw08g6chy3ZYY9-52" value="切出ESC菜单？" style="rhombus;whiteSpace=wrap;html=1;" vertex="1" parent="1">
          <mxGeometry x="331" y="610" width="165" height="80" as="geometry" />
        </mxCell>
        <mxCell id="taEyntPw08g6chy3ZYY9-68" style="edgeStyle=orthogonalEdgeStyle;rounded=0;orthogonalLoop=1;jettySize=auto;html=1;exitX=0.5;exitY=1;exitDx=0;exitDy=0;entryX=0.5;entryY=0;entryDx=0;entryDy=0;" edge="1" parent="1" source="taEyntPw08g6chy3ZYY9-60" target="taEyntPw08g6chy3ZYY9-63">
          <mxGeometry relative="1" as="geometry" />
        </mxCell>
        <mxCell id="taEyntPw08g6chy3ZYY9-69" style="edgeStyle=orthogonalEdgeStyle;rounded=0;orthogonalLoop=1;jettySize=auto;html=1;exitX=0.5;exitY=1;exitDx=0;exitDy=0;" edge="1" parent="1" source="taEyntPw08g6chy3ZYY9-60" target="taEyntPw08g6chy3ZYY9-64">
          <mxGeometry relative="1" as="geometry" />
        </mxCell>
        <mxCell id="taEyntPw08g6chy3ZYY9-70" style="edgeStyle=orthogonalEdgeStyle;rounded=0;orthogonalLoop=1;jettySize=auto;html=1;exitX=0.5;exitY=1;exitDx=0;exitDy=0;entryX=0.5;entryY=0;entryDx=0;entryDy=0;" edge="1" parent="1" source="taEyntPw08g6chy3ZYY9-60" target="taEyntPw08g6chy3ZYY9-65">
          <mxGeometry relative="1" as="geometry" />
        </mxCell>
        <mxCell id="taEyntPw08g6chy3ZYY9-71" style="edgeStyle=orthogonalEdgeStyle;rounded=0;orthogonalLoop=1;jettySize=auto;html=1;exitX=0.5;exitY=1;exitDx=0;exitDy=0;entryX=0.5;entryY=0;entryDx=0;entryDy=0;" edge="1" parent="1" source="taEyntPw08g6chy3ZYY9-60" target="taEyntPw08g6chy3ZYY9-66">
          <mxGeometry relative="1" as="geometry" />
        </mxCell>
        <mxCell id="taEyntPw08g6chy3ZYY9-72" style="edgeStyle=orthogonalEdgeStyle;rounded=0;orthogonalLoop=1;jettySize=auto;html=1;exitX=0.5;exitY=1;exitDx=0;exitDy=0;" edge="1" parent="1" source="taEyntPw08g6chy3ZYY9-60" target="taEyntPw08g6chy3ZYY9-67">
          <mxGeometry relative="1" as="geometry" />
        </mxCell>
        <mxCell id="taEyntPw08g6chy3ZYY9-60" value="ESC菜单" style="rounded=0;whiteSpace=wrap;html=1;" vertex="1" parent="1">
          <mxGeometry x="354" y="760" width="120" height="60" as="geometry" />
        </mxCell>
        <mxCell id="taEyntPw08g6chy3ZYY9-75" style="edgeStyle=orthogonalEdgeStyle;rounded=0;orthogonalLoop=1;jettySize=auto;html=1;exitX=0.5;exitY=1;exitDx=0;exitDy=0;entryX=0;entryY=0.5;entryDx=0;entryDy=0;" edge="1" parent="1" source="taEyntPw08g6chy3ZYY9-63" target="taEyntPw08g6chy3ZYY9-12">
          <mxGeometry relative="1" as="geometry">
            <mxPoint x="-130" y="210" as="targetPoint" />
            <Array as="points">
              <mxPoint x="130" y="990" />
              <mxPoint x="-130" y="990" />
              <mxPoint x="-130" y="130" />
            </Array>
          </mxGeometry>
        </mxCell>
        <mxCell id="taEyntPw08g6chy3ZYY9-63" value="重新开始" style="rounded=0;whiteSpace=wrap;html=1;" vertex="1" parent="1">
          <mxGeometry x="70" y="880" width="120" height="60" as="geometry" />
        </mxCell>
        <mxCell id="taEyntPw08g6chy3ZYY9-85" style="edgeStyle=orthogonalEdgeStyle;rounded=0;orthogonalLoop=1;jettySize=auto;html=1;exitX=0.5;exitY=1;exitDx=0;exitDy=0;entryX=0;entryY=0.5;entryDx=0;entryDy=0;" edge="1" parent="1" source="taEyntPw08g6chy3ZYY9-64" target="taEyntPw08g6chy3ZYY9-78">
          <mxGeometry relative="1" as="geometry">
            <Array as="points">
              <mxPoint x="274" y="1050" />
              <mxPoint x="-220" y="1050" />
              <mxPoint x="-220" y="20" />
            </Array>
          </mxGeometry>
        </mxCell>
        <mxCell id="taEyntPw08g6chy3ZYY9-64" value="退出" style="rounded=0;whiteSpace=wrap;html=1;" vertex="1" parent="1">
          <mxGeometry x="214" y="880" width="120" height="60" as="geometry" />
        </mxCell>
        <mxCell id="taEyntPw08g6chy3ZYY9-65" value="退出到桌面" style="rounded=0;whiteSpace=wrap;html=1;" vertex="1" parent="1">
          <mxGeometry x="354" y="880" width="120" height="60" as="geometry" />
        </mxCell>
        <mxCell id="taEyntPw08g6chy3ZYY9-66" value="帮助界面" style="rounded=0;whiteSpace=wrap;html=1;" vertex="1" parent="1">
          <mxGeometry x="500" y="880" width="120" height="60" as="geometry" />
        </mxCell>
        <mxCell id="taEyntPw08g6chy3ZYY9-77" style="edgeStyle=orthogonalEdgeStyle;rounded=0;orthogonalLoop=1;jettySize=auto;html=1;exitX=0.5;exitY=1;exitDx=0;exitDy=0;entryX=1;entryY=0.5;entryDx=0;entryDy=0;" edge="1" parent="1" source="taEyntPw08g6chy3ZYY9-67" target="taEyntPw08g6chy3ZYY9-12">
          <mxGeometry relative="1" as="geometry">
            <Array as="points">
              <mxPoint x="710" y="1010" />
              <mxPoint x="860" y="1010" />
              <mxPoint x="860" y="130" />
            </Array>
          </mxGeometry>
        </mxCell>
        <mxCell id="taEyntPw08g6chy3ZYY9-67" value="返回" style="rounded=0;whiteSpace=wrap;html=1;" vertex="1" parent="1">
          <mxGeometry x="650" y="880" width="120" height="60" as="geometry" />
        </mxCell>
        <mxCell id="taEyntPw08g6chy3ZYY9-84" style="edgeStyle=orthogonalEdgeStyle;rounded=0;orthogonalLoop=1;jettySize=auto;html=1;exitX=0.5;exitY=1;exitDx=0;exitDy=0;" edge="1" parent="1" source="taEyntPw08g6chy3ZYY9-78" target="taEyntPw08g6chy3ZYY9-12">
          <mxGeometry relative="1" as="geometry" />
        </mxCell>
        <mxCell id="taEyntPw08g6chy3ZYY9-78" value="选关界面" style="rounded=0;whiteSpace=wrap;html=1;" vertex="1" parent="1">
          <mxGeometry x="354" y="-10" width="120" height="60" as="geometry" />
        </mxCell>
      </root>
    </mxGraphModel>
  </diagram>
</mxfile>
